HIERARCHY
ROOT Hips
{
	OFFSET -50.672638 -52.785297 87.293335
	CHANNELS 6 Xposition Yposition Zposition Zrotation Yrotation Xrotation
	JOINT Spine
	{
		OFFSET 0.000000 2.080109 8.814247
		CHANNELS 6 Xposition Yposition Zposition Zrotation Yrotation Xrotation
		JOINT Spine1
		{
			OFFSET 0.000000 0.000000 8.844139
			CHANNELS 6 Xposition Yposition Zposition Zrotation Yrotation Xrotation
			JOINT Spine2
			{
				OFFSET 0.000000 0.000000 11.682266
				CHANNELS 6 Xposition Yposition Zposition Zrotation Yrotation Xrotation
				JOINT Spine3
				{
					OFFSET 0.000000 0.000004 11.746689
					CHANNELS 6 Xposition Yposition Zposition Zrotation Yrotation Xrotation
					JOINT Neck
					{
						OFFSET 0.000000 0.000000 17.658264
						CHANNELS 6 Xposition Yposition Zposition Zrotation Yrotation Xrotation
						JOINT Neck1
						{
							OFFSET 0.000000 0.000000 5.101517
							CHANNELS 6 Xposition Yposition Zposition Zrotation Yrotation Xrotation
							JOINT Head
							{
								OFFSET 0.000000 0.000000 5.101517
								CHANNELS 6 Xposition Yposition Zposition Zrotation Yrotation Xrotation
								JOINT HeadEnd
								{
									OFFSET 0.000000 0.000000 11.655090
									CHANNELS 6 Xposition Yposition Zposition Zrotation Yrotation Xrotation
									End Site
									{
										OFFSET 0.000000 0.000000 0.100006
									}
								}
							}
						}
					}
					JOINT RightShoulder
					{
						OFFSET -2.625389 0.000000 11.175217
						CHANNELS 6 Xposition Yposition Zposition Zrotation Yrotation Xrotation
						JOINT RightArm
						{
							OFFSET 0.000000 0.000000 10.434708
							CHANNELS 6 Xposition Yposition Zposition Zrotation Yrotation Xrotation
							JOINT RightForeArm
							{
								OFFSET 0.000000 0.000004 29.628418
								CHANNELS 6 Xposition Yposition Zposition Zrotation Yrotation Xrotation
								JOINT RightHand
								{
									OFFSET 0.000000 0.000000 22.857605
									CHANNELS 6 Xposition Yposition Zposition Zrotation Yrotation Xrotation
									JOINT RightHandThumb1
									{
										OFFSET -2.867325 -2.944290 3.959564
										CHANNELS 6 Xposition Yposition Zposition Zrotation Yrotation Xrotation
										JOINT RightHandThumb2
										{
											OFFSET 0.000000 0.000000 3.350403
											CHANNELS 6 Xposition Yposition Zposition Zrotation Yrotation Xrotation
											JOINT RightHandThumb3
											{
												OFFSET 0.000000 0.000000 3.756516
												CHANNELS 6 Xposition Yposition Zposition Zrotation Yrotation Xrotation
												JOINT RightHandThumb4
												{
													OFFSET 0.000000 0.000000 3.147339
													CHANNELS 6 Xposition Yposition Zposition Zrotation Yrotation Xrotation
													End Site
													{
														OFFSET 0.000000 0.000000 0.100006
													}
												}
											}
										}
									}
									JOINT RightHandIndex1
									{
										OFFSET -0.086754 -2.345280 10.030899
										CHANNELS 6 Xposition Yposition Zposition Zrotation Yrotation Xrotation
										JOINT RightHandIndex2
										{
											OFFSET 0.000000 0.000000 4.061096
											CHANNELS 6 Xposition Yposition Zposition Zrotation Yrotation Xrotation
											JOINT RightHandIndex3
											{
												OFFSET 0.000000 0.000000 3.248871
												CHANNELS 6 Xposition Yposition Zposition Zrotation Yrotation Xrotation
												JOINT RightHandIndex4
												{
													OFFSET 0.000000 0.000000 2.639709
													CHANNELS 6 Xposition Yposition Zposition Zrotation Yrotation Xrotation
													End Site
													{
														OFFSET 0.000000 0.000000 0.100006
													}
												}
											}
										}
									}
									JOINT RightHandMiddle1
									{
										OFFSET 0.104103 -0.006767 9.502945
										CHANNELS 6 Xposition Yposition Zposition Zrotation Yrotation Xrotation
										JOINT RightHandMiddle2
										{
											OFFSET 0.000000 0.000000 4.568726
											CHANNELS 6 Xposition Yposition Zposition Zrotation Yrotation Xrotation
											JOINT RightHandMiddle3
											{
												OFFSET 0.000000 0.000000 3.654984
												CHANNELS 6 Xposition Yposition Zposition Zrotation Yrotation Xrotation
												JOINT RightHandMiddle4
												{
													OFFSET 0.000000 0.000000 2.741241
													CHANNELS 6 Xposition Yposition Zposition Zrotation Yrotation Xrotation
													End Site
													{
														OFFSET 0.000000 0.000000 0.100006
													}
												}
											}
										}
									}
									JOINT RightHandRing1
									{
										OFFSET 0.086754 2.267441 8.921707
										CHANNELS 6 Xposition Yposition Zposition Zrotation Yrotation Xrotation
										JOINT RightHandRing2
										{
											OFFSET 0.000000 0.000000 4.061096
											CHANNELS 6 Xposition Yposition Zposition Zrotation Yrotation Xrotation
											JOINT RightHandRing3
											{
												OFFSET 0.000000 0.000000 3.654984
												CHANNELS 6 Xposition Yposition Zposition Zrotation Yrotation Xrotation
												JOINT RightHandRing4
												{
													OFFSET 0.000000 0.000000 2.741241
													CHANNELS 6 Xposition Yposition Zposition Zrotation Yrotation Xrotation
													End Site
													{
														OFFSET 0.000000 0.000000 0.100006
													}
												}
											}
										}
									}
									JOINT RightHandPinky1
									{
										OFFSET -0.173504 4.467197 7.976990
										CHANNELS 6 Xposition Yposition Zposition Zrotation Yrotation Xrotation
										JOINT RightHandPinky2
										{
											OFFSET 0.000000 0.000000 3.350403
											CHANNELS 6 Xposition Yposition Zposition Zrotation Yrotation Xrotation
											JOINT RightHandPinky3
											{
												OFFSET 0.000000 0.000000 2.842758
												CHANNELS 6 Xposition Yposition Zposition Zrotation Yrotation Xrotation
												JOINT RightHandPinky4
												{
													OFFSET 0.000000 0.000000 2.639709
													CHANNELS 6 Xposition Yposition Zposition Zrotation Yrotation Xrotation
													End Site
													{
														OFFSET 0.000000 0.000000 0.100006
													}
												}
											}
										}
									}
									JOINT RightForeArmEnd
									{
										OFFSET 0.000000 0.000000 0.000000
										CHANNELS 6 Xposition Yposition Zposition Zrotation Yrotation Xrotation
										End Site
										{
											OFFSET 0.000000 0.000000 0.100006
										}
									}
								}
								JOINT RightArmEnd
								{
									OFFSET 0.000000 0.000000 0.000000
									CHANNELS 6 Xposition Yposition Zposition Zrotation Yrotation Xrotation
									End Site
									{
										OFFSET 0.000000 0.000000 0.100006
									}
								}
							}
						}
					}
					JOINT LeftShoulder
					{
						OFFSET 2.625389 0.000000 11.175217
						CHANNELS 6 Xposition Yposition Zposition Zrotation Yrotation Xrotation
						JOINT LeftArm
						{
							OFFSET 0.000000 0.000000 10.813629
							CHANNELS 6 Xposition Yposition Zposition Zrotation Yrotation Xrotation
							JOINT LeftForeArm
							{
								OFFSET 0.000000 0.000004 28.724777
								CHANNELS 6 Xposition Yposition Zposition Zrotation Yrotation Xrotation
								JOINT LeftHand
								{
									OFFSET 0.644382 0.328873 25.716171
									CHANNELS 6 Xposition Yposition Zposition Zrotation Yrotation Xrotation
									JOINT LeftHandThumb1
									{
										OFFSET 2.867321 -2.944290 3.959564
										CHANNELS 6 Xposition Yposition Zposition Zrotation Yrotation Xrotation
										JOINT LeftHandThumb2
										{
											OFFSET 0.000000 0.000000 3.350403
											CHANNELS 6 Xposition Yposition Zposition Zrotation Yrotation Xrotation
											JOINT LeftHandThumb3
											{
												OFFSET 0.000000 0.000000 3.756516
												CHANNELS 6 Xposition Yposition Zposition Zrotation Yrotation Xrotation
												JOINT LeftHandThumb4
												{
													OFFSET 0.000000 0.000000 3.100006
													CHANNELS 6 Xposition Yposition Zposition Zrotation Yrotation Xrotation
													End Site
													{
														OFFSET 0.000000 0.000000 0.100006
													}
												}
											}
										}
									}
									JOINT LeftHandIndex1
									{
										OFFSET 0.086754 -2.345280 10.030899
										CHANNELS 6 Xposition Yposition Zposition Zrotation Yrotation Xrotation
										JOINT LeftHandIndex2
										{
											OFFSET 0.000000 0.000000 4.061096
											CHANNELS 6 Xposition Yposition Zposition Zrotation Yrotation Xrotation
											JOINT LeftHandIndex3
											{
												OFFSET 0.000000 0.000000 3.248871
												CHANNELS 6 Xposition Yposition Zposition Zrotation Yrotation Xrotation
												JOINT LeftHandIndex4
												{
													OFFSET 0.000000 0.000000 2.639709
													CHANNELS 6 Xposition Yposition Zposition Zrotation Yrotation Xrotation
													End Site
													{
														OFFSET 0.000000 0.000000 0.100006
													}
												}
											}
										}
									}
									JOINT LeftHandMiddle1
									{
										OFFSET -0.104103 -0.006767 9.502945
										CHANNELS 6 Xposition Yposition Zposition Zrotation Yrotation Xrotation
										JOINT LeftHandMiddle2
										{
											OFFSET 0.000000 0.000000 4.568726
											CHANNELS 6 Xposition Yposition Zposition Zrotation Yrotation Xrotation
											JOINT LeftHandMiddle3
											{
												OFFSET 0.000000 0.000000 3.654984
												CHANNELS 6 Xposition Yposition Zposition Zrotation Yrotation Xrotation
												JOINT LeftHandMiddle4
												{
													OFFSET 0.000000 0.000000 2.741241
													CHANNELS 6 Xposition Yposition Zposition Zrotation Yrotation Xrotation
													End Site
													{
														OFFSET 0.000000 0.000000 0.100006
													}
												}
											}
										}
									}
									JOINT LeftHandRing1
									{
										OFFSET -0.086754 2.267441 8.921707
										CHANNELS 6 Xposition Yposition Zposition Zrotation Yrotation Xrotation
										JOINT LeftHandRing2
										{
											OFFSET 0.000000 0.000000 4.061096
											CHANNELS 6 Xposition Yposition Zposition Zrotation Yrotation Xrotation
											JOINT LeftHandRing3
											{
												OFFSET 0.000000 0.000000 3.654984
												CHANNELS 6 Xposition Yposition Zposition Zrotation Yrotation Xrotation
												JOINT LeftHandRing4
												{
													OFFSET 0.000000 0.000000 2.741241
													CHANNELS 6 Xposition Yposition Zposition Zrotation Yrotation Xrotation
													End Site
													{
														OFFSET 0.000000 0.000000 0.100006
													}
												}
											}
										}
									}
									JOINT LeftHandPinky1
									{
										OFFSET 0.173504 4.467197 7.976990
										CHANNELS 6 Xposition Yposition Zposition Zrotation Yrotation Xrotation
										JOINT LeftHandPinky2
										{
											OFFSET 0.000000 0.000000 3.350403
											CHANNELS 6 Xposition Yposition Zposition Zrotation Yrotation Xrotation
											JOINT LeftHandPinky3
											{
												OFFSET 0.000000 0.000000 2.842758
												CHANNELS 6 Xposition Yposition Zposition Zrotation Yrotation Xrotation
												JOINT LeftHandPinky4
												{
													OFFSET 0.000000 0.000000 2.639709
													CHANNELS 6 Xposition Yposition Zposition Zrotation Yrotation Xrotation
													End Site
													{
														OFFSET 0.000000 0.000000 0.100006
													}
												}
											}
										}
									}
									JOINT LeftForeArmEnd
									{
										OFFSET 0.000000 0.000000 0.000000
										CHANNELS 6 Xposition Yposition Zposition Zrotation Yrotation Xrotation
										End Site
										{
											OFFSET 0.000000 0.000000 0.100006
										}
									}
								}
								JOINT LeftArmEnd
								{
									OFFSET 0.000000 0.000000 0.000000
									CHANNELS 6 Xposition Yposition Zposition Zrotation Yrotation Xrotation
									End Site
									{
										OFFSET 0.000000 0.000000 0.100006
									}
								}
							}
						}
					}
				}
			}
		}
	}
	JOINT RightUpLeg
	{
		OFFSET -11.289944 0.000000 0.000000
		CHANNELS 6 Xposition Yposition Zposition Zrotation Yrotation Xrotation
		JOINT RightLeg
		{
			OFFSET 0.000000 -0.000004 -38.200329
			CHANNELS 6 Xposition Yposition Zposition Zrotation Yrotation Xrotation
			JOINT RightFoot
			{
				OFFSET 0.000000 -0.000004 -39.900856
				CHANNELS 6 Xposition Yposition Zposition Zrotation Yrotation Xrotation
				JOINT RightToeBase
				{
					OFFSET 0.000000 -15.261639 0.000001
					CHANNELS 6 Xposition Yposition Zposition Zrotation Yrotation Xrotation
					JOINT RightToeBaseEnd
					{
						OFFSET 0.000000 -7.370712 0.000001
						CHANNELS 6 Xposition Yposition Zposition Zrotation Yrotation Xrotation
						End Site
						{
							OFFSET 0.000000 0.000000 0.100000
						}
					}
				}
				JOINT RightLegEnd
				{
					OFFSET 0.000000 0.000000 0.000000
					CHANNELS 6 Xposition Yposition Zposition Zrotation Yrotation Xrotation
					End Site
					{
						OFFSET 0.000000 0.000000 0.100000
					}
				}
			}
			JOINT RightUpLegEnd
			{
				OFFSET 0.000000 0.000000 0.000000
				CHANNELS 6 Xposition Yposition Zposition Zrotation Yrotation Xrotation
				End Site
				{
					OFFSET 0.000000 0.000000 0.099998
				}
			}
		}
	}
	JOINT LeftUpLeg
	{
		OFFSET 11.315662 0.000000 0.000000
		CHANNELS 6 Xposition Yposition Zposition Zrotation Yrotation Xrotation
		JOINT LeftLeg
		{
			OFFSET 0.000000 -0.000004 -38.200329
			CHANNELS 6 Xposition Yposition Zposition Zrotation Yrotation Xrotation
			JOINT LeftFoot
			{
				OFFSET 0.000000 -0.000004 -39.900856
				CHANNELS 6 Xposition Yposition Zposition Zrotation Yrotation Xrotation
				JOINT LeftToeBase
				{
					OFFSET 0.000000 -15.261639 0.000001
					CHANNELS 6 Xposition Yposition Zposition Zrotation Yrotation Xrotation
					JOINT LeftToeBaseEnd
					{
						OFFSET 0.000000 -7.539993 0.000001
						CHANNELS 6 Xposition Yposition Zposition Zrotation Yrotation Xrotation
						End Site
						{
							OFFSET 0.000000 0.000000 0.100000
						}
					}
				}
				JOINT LeftLegEnd
				{
					OFFSET 0.000000 0.000000 0.000000
					CHANNELS 6 Xposition Yposition Zposition Zrotation Yrotation Xrotation
					End Site
					{
						OFFSET 0.000000 0.000000 0.100000
					}
				}
			}
			JOINT LeftUpLegEnd
			{
				OFFSET 0.000000 0.000000 0.000000
				CHANNELS 6 Xposition Yposition Zposition Zrotation Yrotation Xrotation
				End Site
				{
					OFFSET 0.000000 0.000000 0.099998
				}
			}
		}
	}
}
MOTION
Frames: 2
Frame Time: 0.016667
-62.007732 -3.658161 80.337944 47.199168 -4.323381 -9.865771 0.000005 2.080111 8.814248 -0.906840 -4.329311 13.041256 -0.000003 0.000008 8.844131 -1.278612 -3.303830 15.344192 0.000011 -0.000013 11.682263 0.590931 0.843896 12.585403 -0.000003 0.000016 11.746691 0.537735 0.787329 3.072224 -0.000006 0.000002 17.658291 27.646717 12.431899 11.930762 -0.000004 -0.000006 5.101527 19.072892 3.218896 -9.844836 0.000003 -0.000003 5.101532 3.716370 3.550061 -19.247024 -0.000002 -0.000004 11.655089 -0.000000 -0.000001 0.000000 -2.625388 -0.000001 11.175207 12.668248 -81.489730 -0.504909 0.000000 0.000010 10.434699 -34.290671 -69.892807 40.019533 0.000004 0.000025 29.628416 21.006404 -1.323819 89.196895 0.000011 -0.000008 22.857611 -29.959867 42.537971 0.860223 -2.867327 -2.944300 3.959543 31.690561 -16.746803 52.306907 0.000003 -0.000011 3.350400 -11.527934 7.943463 -20.956376 -0.000001 -0.000007 3.756491 -7.690650 5.973192 -14.361064 0.000012 0.000012 3.147323 0.000000 0.000001 0.000002 -0.086747 -2.345284 10.030895 -10.982839 -12.233630 4.701529 0.000008 -0.000001 4.061110 0.401282 -9.005622 1.276007 0.000014 0.000017 3.248883 -0.098825 -9.005631 1.276033 0.000011 0.000003 2.639703 0.000000 -0.000004 0.000004 0.104098 -0.006770 9.502955 -5.817774 -12.444957 0.681632 0.000003 -0.000004 4.568734 0.477089 -8.848830 0.465434 0.000013 -0.000000 3.654988 -0.028105 -8.848571 0.466199 0.000003 -0.000003 2.741225 0.000003 -0.000001 0.000000 0.086773 2.267439 8.921696 2.497407 -11.208832 -5.515942 0.000013 -0.000002 4.061108 -0.966659 -8.235986 -0.506765 0.000016 0.000003 3.654968 0.029257 -8.235958 -0.506208 0.000014 -0.000003 2.741237 -0.000002 -0.000001 0.000004 -0.173495 4.467184 7.976979 11.211361 -7.077693 -11.709555 0.000008 -0.000003 3.350400 -1.924746 -6.641465 -1.296924 -0.000008 -0.000014 2.842767 0.075559 -6.641826 -1.296898 0.000011 -0.000003 2.639698 -0.000001 0.000001 -0.000002 0.000006 -0.000003 -0.000013 -0.000000 0.000002 -0.000001 0.000004 -0.000001 0.000011 0.000001 -0.000002 0.000003 2.625412 0.000003 11.175201 -9.963928 87.966928 -0.606768 0.000022 0.000007 10.813612 70.279464 36.083442 62.690065 -0.000015 0.000005 28.724779 -16.602725 -0.605122 93.477750 0.644386 0.328869 25.716143 23.697715 -25.023872 4.622127 2.867323 -2.944317 3.959571 -31.770758 16.230946 53.109867 -0.000001 -0.000003 3.350438 10.394980 -7.419848 -19.035314 0.000006 -0.000009 3.756528 6.951719 -5.526314 -13.058311 0.000002 0.000006 3.100007 0.000000 0.000002 0.000000 0.086759 -2.345282 10.030910 -6.378884 12.337154 -4.693193 0.000009 0.000002 4.061117 0.397866 9.076851 -1.286544 -0.000004 -0.000009 3.248883 -0.102127 9.076828 -1.286556 -0.000005 0.000014 2.639693 0.000001 -0.000002 0.000000 -0.104102 -0.006768 9.502935 -1.210303 12.978242 -4.409267 0.000001 -0.000007 4.568746 0.459226 9.388295 -0.496478 0.000007 -0.000002 3.654999 -0.042153 9.388286 -0.496710 -0.000005 -0.000007 2.741224 -0.000001 -0.000001 0.000002 -0.086744 2.267438 8.921716 7.179265 14.358338 -2.421707 -0.000001 0.000005 4.061107 -0.944663 10.023037 0.619583 -0.000009 0.000012 3.654978 0.063058 10.023140 0.621678 0.000001 -0.000008 2.741240 0.000001 0.000000 0.000002 0.173522 4.467197 7.977021 15.874700 14.246251 -0.342809 0.000010 0.000001 3.350405 -1.843308 9.627730 1.889205 0.000001 -0.000005 2.842775 0.158884 9.627754 1.889560 -0.000000 0.000005 2.639695 0.000000 0.000000 -0.000001 0.000005 0.000003 0.000017 -0.000006 0.000002 -0.000000 0.000001 -0.000006 0.000002 0.000000 -0.000000 -0.000002 -11.289949 0.000004 -0.000023 -12.823214 0.017156 -15.559605 -0.000001 -0.000006 -38.200321 -0.381938 0.501277 52.694862 -0.000001 0.000003 -39.900860 -19.345606 4.543223 -2.819347 0.000007 -15.261638 -0.000001 -0.323995 -0.909660 -27.305821 0.000005 -7.370709 0.000001 -0.000003 0.000000 0.000000 0.000007 0.000001 -0.000000 -0.000001 0.000000 0.000000 -0.000001 0.000002 0.000002 0.000001 0.000001 -0.000001 11.315655 0.000003 -0.000010 -2.426393 -14.398075 -10.647581 -0.000005 -0.000002 -38.200340 1.577064 -1.426376 42.117719 -0.000002 0.000009 -39.900852 12.658798 1.443488 15.810715 -0.000001 -15.261645 0.000008 1.087801 0.134746 -29.883864 -0.000001 -7.539992 0.000001 -0.000001 0.000001 -0.000000 0.000001 0.000004 -0.000001 -0.000001 0.000004 -0.000002 -0.000002 0.000013 0.000013 -0.000001 0.000001 -0.000000 
-61.992641 -3.581444 80.316002 47.355225 -4.332526 -9.878497 0.000006 2.080108 8.814236 -0.910533 -4.355089 13.158334 -0.000005 0.000012 8.844124 -1.264717 -3.270955 15.285566 0.000000 0.000004 11.682273 0.572321 0.840323 12.508043 0.000001 0.000008 11.746696 0.584394 0.997189 3.013879 0.000004 -0.000028 17.658266 24.087074 11.215766 11.040275 0.000006 -0.000012 5.101519 16.348237 3.227633 -9.389195 -0.000005 0.000004 5.101522 3.745232 2.813963 -19.530313 0.000004 0.000000 11.655073 0.000000 -0.000003 -0.000000 -2.625382 -0.000018 11.175212 12.811505 -81.623308 -0.514695 -0.000006 0.000000 10.434705 -32.858674 -69.806569 38.197963 -0.000000 0.000007 29.628429 20.961424 -1.340289 89.039029 -0.000006 0.000010 22.857626 -30.103287 42.094104 1.006717 -2.867317 -2.944283 3.959562 31.690575 -16.746801 52.306903 0.000003 -0.000015 3.350413 -11.527946 7.943469 -20.956383 0.000000 -0.000009 3.756502 -7.690638 5.973200 -14.361035 -0.000003 -0.000008 3.147335 -0.000001 -0.000001 0.000004 -0.086737 -2.345278 10.030890 -10.904997 -11.849763 4.981191 0.000015 0.000003 4.061093 0.401400 -8.767470 1.242500 0.000006 -0.000000 3.248872 -0.098404 -8.767447 1.242469 -0.000002 0.000009 2.639718 -0.000002 -0.000003 0.000004 0.104114 -0.006769 9.502958 -5.757969 -12.126247 0.977579 0.000006 -0.000002 4.568736 0.476639 -8.635779 0.454378 -0.000016 -0.000002 3.654996 -0.028167 -8.635550 0.455139 0.000009 -0.000005 2.741227 0.000000 0.000001 0.000001 0.086771 2.267442 8.921698 2.538398 -11.007323 -5.158144 0.000003 -0.000003 4.061087 -0.966315 -8.073499 -0.496914 0.000016 0.000001 3.654988 0.029588 -8.073511 -0.496306 0.000006 0.000005 2.741225 -0.000002 -0.000000 0.000001 -0.173489 4.467196 7.976997 11.249269 -7.042045 -11.289093 0.000004 -0.000017 3.350417 -1.925474 -6.552388 -1.279482 -0.000008 0.000019 2.842766 0.075854 -6.552364 -1.279655 -0.000006 -0.000000 2.639710 -0.000002 -0.000002 -0.000003 0.000010 0.000001 0.000014 -0.000001 -0.000001 0.000001 0.000000 0.000007 -0.000001 -0.000000 -0.000000 0.000001 2.625389 -0.000011 11.175198 -10.184276 87.454036 -0.660712 -0.000009 -0.000004 10.813633 70.639551 36.183781 63.026329 -0.000006 -0.000015 28.724773 -16.584516 -0.604158 93.441503 0.644379 0.328884 25.716194 24.078871 -24.981313 4.690981 2.867331 -2.944309 3.959587 -31.770717 16.230923 53.109826 -0.000006 -0.000004 3.350416 10.394982 -7.419845 -19.035355 -0.000001 -0.000004 3.756536 6.951672 -5.526350 -13.058269 0.000002 -0.000005 3.100022 -0.000001 0.000002 0.000000 0.086761 -2.345289 10.030895 -6.289251 12.871360 -4.984260 0.000002 0.000001 4.061116 0.388518 9.479011 -1.344600 0.000009 0.000003 3.248869 -0.111467 9.479011 -1.344592 -0.000004 -0.000009 2.639714 0.000000 0.000001 -0.000003 -0.104102 -0.006777 9.502948 -1.139261 13.376673 -4.591243 0.000002 0.000003 4.568729 0.455813 9.678636 -0.512285 0.000003 0.000007 3.654991 -0.044468 9.678637 -0.512306 0.000002 0.000005 2.741253 -0.000001 -0.000001 0.000003 -0.086743 2.267429 8.921717 7.193553 14.433846 -2.492288 0.000000 -0.000009 4.061113 -0.943170 10.072664 0.622852 0.000003 0.000006 3.655024 0.063762 10.072672 0.624069 -0.000001 0.000006 2.741242 -0.000001 -0.000001 -0.000001 0.173514 4.467196 7.977005 15.806104 13.967928 -0.384272 -0.000006 -0.000008 3.350427 -1.844215 9.432291 1.851025 0.000004 0.000005 2.842763 0.157129 9.432283 1.851253 0.000002 -0.000001 2.639723 0.000002 -0.000002 0.000001 0.000004 -0.000001 0.000012 -0.000000 -0.000002 0.000002 0.000000 0.000009 0.000019 0.000000 0.000000 -0.000004 -11.289940 -0.000004 -0.000018 -13.231553 0.158068 -15.643088 -0.000000 0.000000 -38.200329 -0.396489 0.522386 52.801372 -0.000006 -0.000006 -39.900856 -19.043684 4.606331 -2.872542 0.000000 -15.261638 0.000000 -0.294436 -0.914739 -27.194398 -0.000005 -7.370703 -0.000000 -0.000002 0.000000 0.000000 0.000000 -0.000004 -0.000001 0.000000 0.000000 -0.000001 -0.000002 -0.000002 -0.000004 0.000004 -0.000001 -0.000001 11.315656 0.000004 -0.000007 -2.193776 -14.421285 -10.923160 -0.000006 0.000015 -38.200333 1.545524 -1.409565 42.355840 -0.000001 0.000007 -39.900856 12.258808 1.572550 15.874423 -0.000000 -15.261652 0.000006 1.080881 0.137022 -29.939858 -0.000001 -7.539993 0.000001 -0.000000 -0.000000 0.000001 -0.000003 -0.000004 -0.000003 0.000001 0.000002 -0.000003 -0.000005 0.000004 -0.000002 -0.000006 0.000003 -0.000000 
